<svg id="svg" xmlns="http://www.w3.org/2000/svg" xmlns:xlink="http://www.w3.org/1999/xlink" width="400" height="282.6603325415677" viewBox="0, 0, 400,282.6603325415677"><g id="svgg"><path id="path0" d="M177.862 9.685 C 166.832 11.493,158.323 15.878,150.549 23.759 C 134.004 40.532,131.741 60.103,144.420 76.756 C 154.750 90.323,159.439 101.098,159.964 112.470 C 160.112 115.671,160.130 118.290,160.004 118.290 C 159.215 118.290,139.191 111.275,134.140 109.230 C 118.266 102.800,105.955 94.330,101.737 86.936 C 92.469 70.691,105.131 52.452,123.040 56.251 C 127.606 57.219,128.302 57.217,126.906 56.239 C 126.177 55.728,125.891 55.158,126.053 54.539 C 126.244 53.808,126.124 53.680,125.500 53.946 C 123.592 54.759,119.466 53.590,119.935 52.369 C 120.141 51.832,119.950 51.736,119.128 51.960 C 114.997 53.086,112.231 52.805,113.634 51.401 C 114.687 50.348,113.549 50.819,111.564 52.257 C 109.371 53.845,107.634 54.056,106.025 52.929 C 104.983 52.199,104.959 52.213,105.249 53.369 C 105.499 54.362,105.306 54.689,104.104 55.310 C 101.996 56.400,100.569 56.308,100.950 55.107 C 101.311 53.969,101.036 53.901,100.052 54.885 C 99.513 55.425,99.437 55.914,99.761 56.767 C 100.141 57.765,99.965 58.112,98.445 59.366 C 96.432 61.025,95.688 60.989,95.810 59.239 C 95.874 58.317,95.716 58.081,95.172 58.290 C 94.455 58.565,94.477 59.641,95.250 62.072 C 95.499 62.858,95.170 63.528,93.851 64.923 L 92.125 66.746 91.373 65.677 C 90.959 65.089,90.433 64.608,90.203 64.608 C 89.370 64.608,89.814 66.248,90.975 67.460 C 92.162 68.699,92.163 68.707,91.404 71.286 C 90.127 75.628,87.915 76.542,87.282 72.991 C 87.107 72.010,87.082 72.016,86.599 73.159 C 85.959 74.677,86.532 75.803,88.553 76.995 C 90.057 77.883,90.097 77.993,90.155 81.352 C 90.249 86.795,89.326 88.038,86.911 85.724 C 85.520 84.392,84.909 84.642,85.532 86.289 C 85.803 87.006,86.649 87.493,88.401 87.942 C 92.751 89.057,95.153 97.667,90.878 96.822 C 90.239 96.695,90.024 96.207,90.024 94.882 C 90.024 92.906,89.186 92.521,88.337 94.106 C 86.884 96.822,89.485 99.240,92.928 98.373 C 95.430 97.743,95.397 97.718,97.705 102.045 C 99.022 104.513,99.031 104.579,98.128 105.252 C 96.971 106.113,96.924 106.109,95.493 105.009 L 94.312 104.102 95.457 102.882 C 96.715 101.543,96.622 101.435,94.805 102.126 C 92.468 103.015,93.649 106.946,96.452 107.606 C 97.300 107.806,98.195 107.523,99.486 106.646 L 101.318 105.403 102.957 106.977 C 106.499 110.379,107.471 113.016,105.669 114.333 C 104.440 115.233,104.111 115.143,102.566 113.489 L 101.188 112.014 101.188 113.251 C 101.188 116.462,105.447 117.512,108.087 114.953 L 109.569 113.517 112.979 116.216 C 116.713 119.170,117.058 120.040,115.223 121.874 C 113.851 123.246,112.541 123.366,111.547 122.209 C 110.217 120.660,110.205 120.273,111.440 118.805 C 112.249 117.844,112.449 117.340,112.021 117.340 C 111.662 117.340,111.002 117.961,110.554 118.719 C 107.569 123.772,114.869 127.252,118.102 122.318 C 119.113 120.776,119.482 120.821,122.572 122.861 C 126.550 125.489,127.379 127.202,125.497 128.905 C 124.191 130.087,119.707 129.236,119.717 127.807 C 119.723 126.969,121.733 124.466,122.400 124.466 C 122.839 124.466,123.090 124.357,122.958 124.225 C 122.028 123.295,119.540 124.741,118.665 126.719 C 117.789 128.698,117.636 128.814,116.229 128.564 C 96.281 125.019,75.910 132.748,67.558 147.031 C 55.394 167.831,67.602 193.006,90.835 195.033 C 105.035 196.272,117.334 184.334,114.979 171.598 C 114.422 168.581,113.539 167.185,113.539 169.319 C 113.539 170.447,113.382 170.616,112.535 170.394 C 111.533 170.132,111.533 170.135,112.464 171.170 C 114.391 173.314,114.273 175.297,112.218 175.297 L 110.998 175.297 112.068 176.436 C 113.464 177.922,112.427 180.523,110.439 180.523 C 109.178 180.523,108.949 180.968,109.783 181.802 C 111.121 183.140,107.907 186.162,105.936 185.418 C 104.595 184.911,104.564 184.933,104.820 186.212 C 105.063 187.430,104.916 187.584,102.813 188.300 C 99.988 189.263,98.812 189.281,98.812 188.361 C 98.812 187.944,99.245 187.648,99.857 187.648 C 100.614 187.648,100.759 187.505,100.383 187.129 C 99.548 186.294,98.165 186.841,97.864 188.126 C 97.485 189.743,93.431 190.107,91.672 188.683 L 90.548 187.772 91.592 187.441 C 92.833 187.047,92.951 186.314,91.842 185.888 C 91.301 185.681,90.651 186.057,89.810 187.064 L 88.574 188.545 85.994 187.135 C 83.380 185.705,82.681 185.039,82.668 183.967 C 82.658 183.209,84.664 183.192,85.416 183.943 C 85.859 184.386,85.986 184.386,85.986 183.943 C 85.986 181.796,82.996 181.240,80.883 182.993 C 80.541 183.276,80.194 183.424,80.112 183.322 C 75.110 177.121,74.830 174.441,79.393 176.440 C 80.018 176.714,80.120 176.547,79.931 175.557 C 79.652 174.101,78.196 173.606,76.307 174.324 C 74.440 175.034,74.248 174.772,73.869 170.998 C 73.435 166.672,74.414 165.024,76.341 166.834 C 76.971 167.426,77.352 168.210,77.210 168.623 C 77.051 169.087,77.221 169.018,77.671 168.437 C 78.759 167.031,78.567 166.563,76.210 164.870 C 73.846 163.172,73.771 162.682,75.367 159.307 C 76.113 157.729,78.343 156.470,79.564 156.938 C 80.489 157.293,80.494 158.855,79.572 159.620 C 78.600 160.427,78.677 161.045,79.752 161.045 C 82.266 161.045,82.414 156.720,79.957 155.070 L 78.441 154.052 79.957 152.640 C 83.977 148.896,85.459 148.398,86.742 150.356 C 87.928 152.166,86.558 154.144,84.398 153.741 C 82.994 153.479,82.957 153.506,83.820 154.165 C 87.054 156.635,90.550 152.869,88.359 149.276 C 87.168 147.322,87.101 147.515,89.192 146.877 C 95.074 145.082,96.912 145.214,96.912 147.432 C 96.912 149.602,95.746 150.475,94.085 149.547 C 92.513 148.669,91.832 149.809,93.233 150.973 C 95.775 153.082,98.847 151.284,98.973 147.614 C 99.064 144.971,99.180 144.945,105.907 146.038 C 111.061 146.876,112.069 147.890,110.159 150.318 C 108.549 152.365,106.226 151.919,106.028 149.525 C 105.832 147.149,104.988 147.236,104.988 149.633 C 104.988 154.525,111.688 154.344,113.174 149.412 L 113.777 147.410 118.954 149.002 C 126.042 151.181,127.010 152.398,124.027 155.381 C 122.392 157.016,121.232 157.131,119.805 155.801 C 118.230 154.334,118.468 152.748,120.428 151.637 C 121.191 151.204,121.225 151.095,120.599 151.083 C 116.771 151.012,116.766 157.253,120.592 158.567 C 123.688 159.629,126.091 158.435,127.633 155.066 C 129.021 152.034,128.577 152.111,133.823 153.998 C 140.525 156.408,141.325 157.437,139.205 160.914 C 137.282 164.067,133.074 162.681,133.604 159.069 C 133.856 157.352,133.147 157.316,132.502 159.013 C 131.898 160.600,132.360 161.741,134.621 164.243 L 136.268 166.067 130.926 174.868 C 107.712 213.113,92.131 226.198,74.698 222.088 C 58.985 218.383,52.154 200.932,61.455 188.254 C 64.442 184.183,64.525 183.935,62.319 185.681 C 61.014 186.714,59.973 187.190,59.368 187.032 C 58.836 186.893,58.431 187.024,58.430 187.337 C 58.422 188.890,57.263 191.711,56.192 192.782 C 55.441 193.533,54.929 194.638,54.844 195.690 C 54.605 198.643,53.190 201.431,52.596 200.119 C 52.329 199.531,51.930 199.050,51.709 199.050 C 51.100 199.050,51.217 199.490,52.197 200.877 C 54.197 203.706,54.055 208.392,51.985 207.872 C 51.109 207.652,50.918 207.750,51.132 208.308 C 51.284 208.703,51.787 209.026,52.249 209.026 C 53.501 209.026,54.245 210.196,54.514 212.589 C 54.755 214.724,54.371 215.226,53.310 214.165 C 52.606 213.461,52.044 213.962,52.425 214.955 C 52.718 215.719,53.036 215.881,55.144 216.338 C 55.992 216.523,56.758 217.319,57.636 218.932 L 58.903 221.260 57.361 221.647 L 55.819 222.034 57.761 222.204 C 60.607 222.454,64.849 226.662,63.164 227.564 C 62.223 228.067,61.968 227.997,61.179 227.016 L 60.273 225.891 60.604 227.078 C 61.097 228.845,62.706 229.124,65.796 227.979 C 66.057 227.882,67.233 228.463,68.409 229.269 C 69.584 230.075,71.134 230.878,71.853 231.054 C 73.479 231.450,73.510 232.053,71.954 233.072 C 70.767 233.849,69.435 233.146,69.374 231.710 C 69.343 230.982,68.511 231.385,68.289 232.237 C 67.615 234.811,70.612 235.453,74.257 233.515 C 78.530 231.243,87.130 234.062,84.152 236.757 C 83.080 237.727,82.713 237.724,81.626 236.741 C 80.421 235.651,79.988 236.293,80.944 237.752 C 82.640 240.340,86.216 238.930,86.781 235.451 C 86.934 234.504,87.193 233.725,87.354 233.720 C 87.516 233.715,89.350 233.411,91.430 233.044 C 95.665 232.298,96.912 232.612,96.912 234.425 C 96.912 236.975,94.672 237.767,93.166 235.748 C 92.144 234.378,91.620 235.464,92.575 236.972 C 94.372 239.806,98.952 237.500,99.011 233.732 L 99.050 231.212 101.900 230.120 C 105.800 228.626,107.261 228.642,107.648 230.185 C 108.334 232.919,105.831 233.999,103.993 231.763 C 102.784 230.292,102.755 230.284,102.480 231.336 C 101.742 234.156,106.340 235.746,108.625 233.461 C 109.764 232.321,109.822 232.047,109.517 229.200 L 109.191 226.156 112.517 224.004 C 116.073 221.704,117.308 221.414,118.493 222.599 C 120.789 224.895,118.032 228.340,115.672 226.124 C 114.348 224.880,114.098 225.359,115.229 226.973 C 116.094 228.207,117.317 228.310,119.249 227.311 C 121.913 225.934,122.362 223.289,120.342 220.887 C 119.071 219.378,119.071 219.372,120.033 218.594 C 120.563 218.165,122.117 216.906,123.487 215.796 C 126.353 213.471,128.257 213.162,129.427 214.833 C 131.588 217.918,127.819 221.237,125.501 218.290 C 124.440 216.942,123.990 216.793,123.990 217.788 C 123.990 219.326,126.094 220.998,128.029 220.998 C 132.241 220.998,133.904 216.276,131.070 212.363 L 129.598 210.331 132.839 207.066 C 137.050 202.822,141.093 203.084,141.093 207.602 C 141.093 211.321,137.104 212.607,135.051 209.550 L 133.967 207.936 133.967 209.215 C 133.967 212.724,139.325 214.192,142.079 211.438 C 144.082 209.435,143.982 207.003,141.725 202.824 L 139.981 199.596 142.859 196.354 C 146.936 191.760,147.529 191.298,149.286 191.348 C 151.048 191.398,153.444 193.664,153.444 195.280 C 153.444 200.186,147.383 201.270,146.327 196.553 L 145.982 195.012 145.602 196.404 C 144.334 201.052,150.456 202.658,154.477 198.731 C 155.467 197.765,156.365 197.067,156.473 197.181 C 156.581 197.294,157.251 198.777,157.962 200.475 C 158.673 202.173,162.766 210.564,167.058 219.120 C 176.724 238.393,177.714 241.599,176.013 248.127 C 172.629 261.120,158.123 268.821,145.793 264.171 C 126.476 256.884,129.213 228.319,149.311 227.444 C 153.014 227.283,151.818 226.602,147.862 226.619 C 145.344 226.629,143.355 226.943,141.568 227.611 C 140.131 228.147,138.260 228.698,137.411 228.835 C 136.562 228.971,135.867 229.236,135.867 229.424 C 135.867 230.319,132.747 234.330,131.759 234.706 C 131.039 234.980,130.641 235.515,130.640 236.212 C 130.639 236.806,129.994 238.575,129.207 240.143 C 127.886 242.773,127.800 243.246,128.090 246.277 C 128.379 249.302,128.337 249.535,127.555 249.235 C 126.909 248.987,126.823 249.054,127.193 249.514 C 128.263 250.844,129.919 257.048,129.305 257.427 C 128.888 257.685,129.052 257.947,129.861 258.315 C 131.060 258.861,134.131 263.959,133.690 264.672 C 133.550 264.898,133.800 265.083,134.246 265.083 C 135.402 265.083,139.663 269.173,139.097 269.739 C 138.811 270.025,139.090 270.106,139.856 269.959 C 140.638 269.810,141.827 270.174,143.217 270.989 C 145.315 272.218,146.085 273.634,144.656 273.634 C 143.679 273.634,143.756 274.411,144.772 274.801 C 145.338 275.018,145.904 274.738,146.558 273.918 C 147.506 272.729,147.544 272.723,150.294 273.363 C 154.490 274.338,155.882 276.464,152.347 276.500 C 150.912 276.514,150.880 276.552,151.754 277.212 C 153.071 278.209,153.322 278.123,155.197 276.035 C 157.128 273.884,158.997 273.284,160.909 274.200 C 162.806 275.109,162.735 276.769,160.808 276.589 C 159.449 276.462,159.426 276.490,160.305 277.183 C 161.729 278.306,163.130 277.211,164.293 274.066 C 164.829 272.618,168.866 271.180,170.428 271.882 C 171.782 272.490,171.795 273.795,170.457 275.041 C 169.265 276.152,169.372 276.204,171.397 275.498 C 173.017 274.933,173.426 273.790,172.825 271.512 C 172.216 269.201,176.316 266.445,179.127 267.275 L 180.550 267.696 179.593 269.564 C 178.416 271.862,178.619 272.140,180.495 270.803 C 182.157 269.620,182.197 269.387,181.258 266.268 C 180.335 263.201,182.259 260.246,185.617 259.575 C 187.882 259.122,188.767 261.016,187.000 262.536 C 185.456 263.863,185.436 264.133,186.881 264.133 C 189.696 264.133,190.286 260.427,187.838 258.119 L 186.127 256.505 187.656 252.713 C 189.431 248.309,190.633 247.524,192.670 249.437 L 193.838 250.535 192.313 252.108 L 190.787 253.682 191.995 253.682 C 195.673 253.682,195.791 248.981,192.162 247.024 L 189.786 245.743 189.786 241.648 C 189.786 236.328,190.789 234.912,193.606 236.255 C 195.687 237.248,195.797 239.250,193.824 240.243 L 192.637 240.841 193.869 240.848 C 195.424 240.857,196.675 239.506,196.675 237.817 C 196.675 235.521,195.881 234.766,192.366 233.720 C 190.527 233.172,188.949 232.469,188.859 232.158 C 188.090 229.502,186.223 222.464,186.223 222.224 C 186.223 220.530,189.750 219.907,191.468 221.298 C 193.409 222.869,191.744 226.198,189.219 225.793 C 188.181 225.626,188.044 225.690,188.599 226.084 C 192.486 228.839,196.395 222.613,192.888 219.253 C 191.446 217.871,191.124 217.824,185.787 218.207 C 184.634 218.290,180.563 209.951,180.533 207.446 C 180.517 206.142,183.095 203.800,184.546 203.800 C 188.156 203.800,189.206 208.129,185.986 209.739 L 184.086 210.689 185.702 210.843 C 188.021 211.064,189.765 209.245,189.765 206.604 C 189.765 202.231,184.426 199.925,180.106 202.433 C 178.137 203.576,178.541 204.162,176.525 197.225 C 174.467 190.141,174.457 189.841,176.210 188.087 C 178.710 185.587,182.018 187.118,182.115 190.819 C 182.197 193.926,180.313 195.147,177.522 193.797 C 176.546 193.325,176.551 193.353,177.606 194.272 C 180.945 197.181,185.497 193.663,184.598 188.869 C 184.270 187.122,181.571 184.345,180.150 184.293 C 178.547 184.235,175.065 183.774,174.887 183.597 C 174.476 183.186,177.547 178.672,179.969 176.127 C 187.582 168.128,198.174 168.863,210.001 178.212 L 212.529 180.210 210.823 180.801 C 205.649 182.592,203.374 187.234,205.619 191.420 C 207.698 195.296,213.010 195.741,214.634 192.175 C 215.517 190.237,215.313 189.966,213.933 191.246 C 212.226 192.827,210.792 193.119,209.356 192.179 C 205.832 189.869,207.171 185.194,211.562 184.481 C 214.181 184.056,215.437 185.189,217.857 190.163 L 219.975 194.514 217.664 195.534 C 209.897 198.962,212.748 210.336,220.617 207.316 C 221.577 206.948,223.495 203.851,223.030 203.419 C 222.833 203.237,222.564 203.396,222.430 203.773 C 221.818 205.502,219.917 206.763,218.383 206.456 C 213.743 205.528,214.428 199.382,219.243 198.736 C 221.585 198.422,221.810 198.657,225.112 204.855 L 227.571 209.473 225.644 210.456 C 221.605 212.516,220.539 217.309,223.468 220.238 C 226.303 223.073,230.880 221.810,230.878 218.193 C 230.877 216.866,230.876 216.866,230.047 218.527 C 228.605 221.414,224.228 219.978,224.228 216.619 C 224.228 211.532,228.944 212.054,232.192 217.500 C 234.590 221.521,234.579 221.426,232.777 222.491 C 229.129 224.646,229.117 229.837,232.757 231.345 C 235.041 232.291,238.005 230.680,238.005 228.493 C 238.005 228.191,237.347 228.497,236.543 229.174 C 234.828 230.617,234.739 230.630,233.360 229.664 C 232.126 228.800,232.000 227.249,233.044 225.759 C 234.612 223.519,237.011 224.706,240.251 229.325 L 242.222 232.134 240.887 232.922 C 237.263 235.063,238.941 241.990,242.714 240.460 C 244.067 239.912,245.799 238.514,245.498 238.214 C 245.339 238.055,244.764 238.371,244.220 238.915 C 242.608 240.528,240.380 239.538,240.380 237.210 C 240.380 233.725,243.849 233.952,247.092 237.648 L 249.696 240.618 249.113 242.518 C 247.860 246.597,248.565 249.097,251.069 249.453 C 253.391 249.784,255.615 247.854,254.731 246.275 C 254.379 245.645,254.192 245.719,253.512 246.756 C 252.087 248.931,249.524 247.907,250.150 245.414 C 250.469 244.142,250.742 244.008,252.683 244.171 C 253.782 244.264,258.432 247.380,258.432 248.024 C 258.432 248.198,258.105 249.124,257.704 250.083 C 256.152 253.798,260.466 256.942,263.029 253.963 C 263.663 253.225,264.059 252.499,263.909 252.349 C 263.759 252.199,263.308 252.544,262.908 253.117 C 261.561 255.040,259.382 253.976,259.382 251.396 C 259.382 249.343,260.522 249.247,264.697 250.944 L 268.646 252.549 268.494 254.272 C 268.233 257.215,270.113 259.298,272.491 258.701 C 274.136 258.288,273.898 257.637,271.971 257.276 C 270.615 257.022,270.309 256.752,270.309 255.815 C 270.309 254.232,271.471 253.747,275.587 253.616 L 279.114 253.503 281.312 255.830 C 283.610 258.262,285.470 258.429,286.295 256.278 C 286.728 255.151,286.094 254.862,285.120 255.743 C 283.956 256.796,283.279 256.737,282.631 255.527 C 281.873 254.110,282.688 253.500,286.614 252.543 L 289.854 251.754 291.174 253.167 C 292.101 254.159,292.789 254.503,293.483 254.322 C 294.973 253.932,295.103 252.946,293.679 252.829 C 291.030 252.609,291.321 251.131,294.380 249.268 C 296.357 248.065,296.632 248.010,297.366 248.674 C 298.295 249.515,300.238 249.659,300.238 248.887 C 300.238 248.601,299.810 248.255,299.287 248.119 C 297.971 247.774,298.085 247.313,300.013 245.178 C 301.567 243.459,301.790 243.361,303.063 243.842 C 304.116 244.239,304.612 244.215,305.188 243.737 C 306.321 242.796,306.095 242.422,304.532 242.651 C 303.181 242.850,303.141 242.804,303.532 241.500 C 304.345 238.789,304.652 238.439,306.696 237.892 L 308.765 237.339 307.300 236.723 C 305.580 236.000,305.661 234.730,307.617 231.740 C 308.678 230.117,308.712 229.889,308.066 228.652 C 307.238 227.065,307.182 225.717,307.868 223.913 C 308.228 222.967,308.225 222.536,307.858 222.414 C 307.111 222.165,305.945 219.724,305.839 218.187 C 305.759 217.033,302.739 212.542,302.323 212.958 C 302.238 213.044,302.690 214.615,303.328 216.449 C 311.016 238.556,282.504 254.472,265.843 237.375 C 259.875 231.252,252.419 218.554,247.522 206.176 C 244.076 197.466,236.578 173.229,236.581 170.809 C 236.587 166.034,241.900 163.853,243.002 168.174 C 244.052 172.291,245.744 173.872,249.103 173.872 C 250.807 173.872,253.207 171.767,253.207 170.272 C 253.207 169.377,254.227 169.418,256.278 170.397 C 257.853 171.148,257.957 171.337,257.957 173.462 C 257.957 178.779,262.406 181.522,265.558 178.147 C 267.199 176.391,267.075 176.386,269.573 178.293 L 271.631 179.865 270.497 181.737 C 268.161 185.597,269.426 188.464,273.816 189.260 C 275.181 189.508,277.440 187.613,277.429 186.228 C 277.426 185.800,276.934 186.133,276.207 187.055 C 273.708 190.226,269.674 186.798,271.998 183.479 C 273.217 181.739,274.566 182.207,278.741 185.813 L 282.661 189.199 281.710 190.736 C 279.251 194.715,284.026 199.871,286.671 196.094 C 287.713 194.607,287.576 193.820,286.516 195.199 C 284.761 197.481,281.755 194.979,283.141 192.389 C 284.012 190.762,287.984 192.280,292.553 195.986 C 292.637 196.055,292.370 196.762,291.959 197.557 C 290.616 200.155,291.340 201.708,294.193 202.351 C 296.334 202.834,296.430 202.642,294.537 201.663 C 293.079 200.909,292.549 198.979,293.618 198.318 C 295.600 197.093,302.401 199.428,301.818 201.132 C 300.709 204.374,303.368 207.488,306.057 206.097 C 307.401 205.402,307.014 204.751,305.258 204.751 C 303.262 204.751,302.394 203.107,303.833 202.055 C 306.132 200.374,309.061 201.226,310.648 204.038 C 311.964 206.371,312.287 206.650,313.662 206.640 L 315.202 206.630 314.014 205.701 C 313.361 205.190,312.689 204.767,312.521 204.761 C 311.813 204.737,311.735 203.297,312.406 202.627 C 313.932 201.100,317.404 201.677,319.477 203.800 C 321.590 205.964,322.022 206.066,323.582 204.767 L 324.703 203.833 323.040 204.295 C 320.428 205.021,319.599 203.575,321.599 201.781 C 323.508 200.069,324.964 200.106,326.291 201.900 C 327.430 203.441,327.670 203.538,328.716 202.876 C 329.287 202.515,329.222 202.295,328.336 201.577 L 327.269 200.713 329.102 198.923 L 330.936 197.133 332.059 198.329 C 333.156 199.497,335.086 199.929,335.587 199.119 C 335.724 198.896,335.301 198.470,334.647 198.171 C 333.693 197.737,333.550 197.463,333.925 196.795 C 334.803 195.237,336.783 193.109,336.800 193.705 C 336.811 194.090,337.530 194.289,338.836 194.269 C 340.526 194.244,340.681 194.169,339.787 193.810 C 338.612 193.338,339.598 189.903,340.805 190.263 C 341.094 190.349,341.971 190.547,342.755 190.704 L 344.181 190.988 343.039 190.014 L 341.897 189.041 343.246 187.632 C 344.212 186.624,345.077 186.208,346.288 186.168 C 347.219 186.138,347.607 186.015,347.150 185.896 C 346.201 185.648,346.143 185.322,346.757 183.706 C 346.998 183.072,347.639 182.437,348.182 182.295 C 348.793 182.135,349.169 181.650,349.169 181.019 C 349.169 180.460,349.713 179.497,350.379 178.880 C 351.104 178.209,351.698 177.026,351.858 175.934 L 352.127 174.109 349.853 176.722 C 334.070 194.857,317.140 199.262,302.205 189.119 C 297.931 186.217,289.449 178.263,281.710 169.900 C 277.922 165.806,273.408 161.321,271.680 159.933 C 268.546 157.416,268.540 157.406,269.348 156.258 C 270.599 154.481,270.735 153.731,270.037 152.470 C 269.396 151.313,269.392 151.316,269.376 152.993 C 269.347 155.882,267.309 156.722,264.910 154.835 C 262.683 153.083,264.199 149.169,267.105 149.169 C 267.944 149.169,276.394 153.671,277.351 154.627 C 277.436 154.712,277.134 155.825,276.681 157.102 C 275.637 160.040,276.030 161.732,278.041 162.958 C 281.215 164.894,284.596 163.754,284.530 160.770 L 284.500 159.382 283.734 160.921 C 282.472 163.456,279.200 163.280,278.538 160.640 C 277.564 156.758,280.183 156.162,286.223 158.890 L 290.974 161.036 290.819 163.537 C 290.615 166.821,292.073 168.464,294.798 168.022 C 297.171 167.637,297.868 166.919,297.826 164.906 L 297.790 163.183 297.232 164.706 C 296.214 167.487,293.674 167.841,292.872 165.314 C 292.174 163.114,293.813 162.322,298.451 162.618 C 303.376 162.932,303.563 163.021,303.563 165.038 C 303.563 166.966,304.842 168.217,306.873 168.275 C 308.720 168.327,310.502 166.756,310.020 165.500 C 309.728 164.740,309.582 164.788,308.647 165.951 C 307.475 167.408,305.463 166.730,305.463 164.877 C 305.463 163.029,313.271 160.333,314.252 161.842 C 315.768 164.176,316.550 164.846,317.760 164.846 C 319.346 164.846,321.140 163.276,321.140 161.888 C 321.140 160.916,321.074 160.931,319.743 162.206 C 318.301 163.588,317.086 163.601,316.564 162.240 C 316.147 161.152,317.605 159.257,320.058 157.701 L 322.240 156.317 323.330 157.494 C 324.893 159.180,326.963 159.075,328.266 157.245 C 329.411 155.636,329.234 155.475,327.540 156.584 C 324.691 158.451,323.941 155.234,326.528 152.241 C 328.006 150.531,328.277 150.411,330.448 150.508 C 333.305 150.636,333.872 150.291,334.242 148.195 L 334.532 146.556 333.544 147.981 C 333.001 148.765,332.340 149.385,332.074 149.359 C 331.809 149.333,331.378 149.279,331.116 149.240 C 330.299 149.117,330.597 146.436,331.675 144.217 C 332.243 143.047,332.889 142.201,333.109 142.337 C 333.648 142.671,336.965 141.564,337.404 140.905 C 338.280 139.587,337.697 139.216,336.335 140.223 C 334.348 141.692,333.064 140.629,333.906 138.212 C 334.201 137.367,334.442 136.214,334.442 135.650 C 334.442 134.830,334.847 134.534,336.461 134.177 C 338.025 133.830,338.514 133.488,338.632 132.660 C 338.806 131.434,338.157 131.262,337.292 132.304 C 336.422 133.352,336.060 133.195,335.209 131.401 C 334.041 128.941,334.235 127.110,335.856 125.263 C 336.634 124.377,337.142 123.524,336.985 123.366 C 336.828 123.209,336.347 123.516,335.916 124.048 L 335.132 125.016 334.193 123.978 C 333.464 123.172,333.254 122.262,333.254 119.903 C 333.254 118.232,333.183 117.077,333.097 117.336 C 332.809 118.200,331.354 116.996,329.672 114.499 C 328.768 113.159,327.021 111.331,325.789 110.438 C 324.282 109.346,323.420 108.316,323.154 107.290 C 322.937 106.451,322.448 105.663,322.068 105.537 C 321.475 105.341,321.471 105.421,322.039 106.110 C 323.720 108.146,320.697 107.582,317.709 105.302 C 315.791 103.838,315.550 103.769,314.587 104.409 C 313.664 105.021,313.279 105.009,311.284 104.307 C 307.411 102.943,307.363 102.935,307.363 103.670 C 307.363 105.025,301.944 106.009,300.761 104.869 C 300.263 104.389,300.181 104.457,300.331 105.226 C 300.587 106.535,297.249 108.779,295.012 108.802 C 293.465 108.818,293.412 108.866,294.249 109.500 C 295.120 110.160,295.106 110.238,293.807 111.941 C 291.545 114.906,290.278 118.609,290.332 122.090 L 290.380 125.178 290.738 122.735 C 293.553 103.506,321.055 103.559,326.195 122.803 C 330.084 137.361,316.952 152.676,302.679 150.228 C 297.085 149.269,292.633 146.764,279.572 137.224 C 259.598 122.633,249.225 118.384,237.705 120.072 C 235.910 120.335,234.370 120.486,234.281 120.408 C 234.152 120.292,236.305 116.246,236.908 115.473 C 236.995 115.361,237.819 115.628,238.739 116.067 C 243.805 118.483,248.568 113.725,244.748 110.065 C 243.393 108.766,242.280 108.405,242.280 109.264 C 242.280 109.525,242.494 109.739,242.755 109.739 C 243.700 109.739,245.112 111.608,244.810 112.460 C 243.890 115.053,241.702 115.690,239.988 113.865 C 238.542 112.326,238.663 111.645,241.140 107.382 L 243.325 103.621 245.396 104.627 C 248.443 106.108,251.950 103.963,251.061 101.163 C 250.750 100.184,250.701 100.200,249.872 101.563 C 248.786 103.349,248.217 103.702,247.027 103.324 C 245.394 102.806,245.786 100.220,247.902 97.549 C 250.842 93.837,251.115 93.701,252.656 95.177 C 254.858 97.286,259.202 95.786,258.221 93.255 C 257.925 92.490,257.787 92.539,256.934 93.705 C 255.860 95.172,255.029 95.350,254.157 94.300 C 253.240 93.194,254.369 91.059,256.506 89.858 C 258.943 88.488,259.171 88.537,260.626 90.736 C 261.505 92.064,262.223 92.637,263.008 92.637 C 264.441 92.637,264.427 92.292,262.945 91.127 C 260.431 89.149,261.838 87.306,265.923 87.227 L 268.646 87.173 268.490 89.157 C 268.279 91.838,269.920 93.134,272.057 91.976 L 273.397 91.249 271.838 91.230 C 269.932 91.207,269.248 89.971,270.588 88.971 C 273.131 87.074,277.097 89.472,276.675 92.651 C 276.414 94.624,276.501 94.987,277.348 95.441 C 278.920 96.282,279.673 96.018,278.429 95.062 C 277.695 94.498,277.393 93.907,277.583 93.410 C 278.143 91.952,279.745 92.560,281.418 94.865 L 283.035 97.093 281.594 98.886 C 280.150 100.683,280.667 103.789,282.248 102.812 C 282.589 102.601,282.582 102.345,282.227 101.989 C 281.362 101.124,281.617 99.762,282.644 99.762 C 284.560 99.762,285.479 105.370,283.729 106.389 C 281.699 107.570,281.152 108.255,281.462 109.229 C 281.871 110.518,282.509 110.495,282.461 109.193 C 282.414 107.933,283.497 107.465,283.918 108.563 C 284.716 110.642,282.785 114.313,281.003 114.105 C 279.536 113.934,279.335 114.038,279.335 114.971 C 279.335 115.859,279.450 115.935,280.048 115.439 C 281.483 114.248,280.833 117.092,279.344 118.519 C 278.097 119.714,277.785 119.811,276.731 119.330 C 275.597 118.814,275.000 119.328,276.010 119.952 C 276.909 120.508,276.479 121.058,274.335 122.096 C 272.716 122.880,272.028 123.006,271.547 122.608 C 271.069 122.210,270.761 122.258,270.314 122.797 C 269.295 124.025,265.558 123.613,265.558 122.273 C 265.558 121.742,265.378 121.719,264.673 122.160 C 263.941 122.617,263.502 122.494,262.134 121.451 C 261.225 120.758,260.190 120.190,259.835 120.190 C 259.480 120.190,258.454 119.495,257.554 118.646 L 255.919 117.102 256.819 118.688 C 262.310 128.359,276.255 128.803,284.861 119.582 C 300.826 102.473,287.563 75.504,263.202 75.541 C 249.638 75.562,239.888 81.781,226.528 98.931 C 221.575 105.290,221.222 105.646,221.583 103.919 C 221.706 103.331,221.933 101.484,222.088 99.815 C 222.825 91.858,224.885 84.367,229.679 72.209 C 235.292 57.973,236.364 53.384,235.993 45.192 C 235.141 26.374,221.026 13.801,196.200 9.745 C 192.319 9.111,181.575 9.076,177.862 9.685 M134.484 130.030 C 139.605 132.766,139.574 132.817,133.560 131.537 C 128.643 130.490,128.374 130.314,129.233 128.710 C 129.877 127.507,129.662 127.453,134.484 130.030 M245.927 140.736 C 245.786 141.324,245.525 142.607,245.348 143.587 C 244.969 145.675,243.425 146.038,241.805 144.418 C 239.803 142.415,241.614 139.790,245.063 139.698 C 245.990 139.673,246.139 139.852,245.927 140.736 M257.720 143.593 C 260.594 144.889,263.037 146.034,263.149 146.139 C 263.462 146.432,260.688 152.019,260.229 152.019 C 258.801 152.019,255.055 149.522,255.377 148.784 C 256.112 147.096,256.124 144.964,255.405 143.644 L 254.662 142.280 254.941 144.480 C 255.329 147.534,254.089 148.875,251.589 148.108 C 247.912 146.980,246.979 143.749,249.710 141.600 C 251.063 140.536,250.776 140.464,257.720 143.593 M250.469 168.125 L 252.720 168.889 251.773 170.446 C 249.637 173.959,245.313 171.979,245.979 167.794 C 246.167 166.613,245.978 166.599,250.469 168.125 M263.311 174.173 C 264.416 174.862,265.409 175.502,265.517 175.596 C 266.222 176.214,264.487 178.147,263.228 178.147 C 261.683 178.147,259.756 176.213,260.122 175.029 C 260.918 172.454,260.661 172.523,263.311 174.173 M154.367 188.492 C 154.393 189.536,154.347 189.548,152.999 188.852 C 150.941 187.787,150.849 187.314,152.327 185.376 L 153.667 183.619 154.003 185.515 C 154.188 186.558,154.352 187.897,154.367 188.492 " stroke="none" fill="#000000" fill-rule="evenodd"></path></g></svg>